<?xml version="1.0" standalone="no"?>
<!DOCTYPE svg PUBLIC "-//W3C//DTD SVG 20010904//EN"
 "http://www.w3.org/TR/2001/REC-SVG-20010904/DTD/svg10.dtd">
<svg version="1.0" xmlns="http://www.w3.org/2000/svg"
 width="512.000000pt" height="512.000000pt" viewBox="0 0 512.000000 512.000000"
 preserveAspectRatio="xMidYMid meet">
<metadata>
Created by potrace 1.14, written by Peter Selinger 2001-2017
</metadata>
<g transform="translate(0.000000,512.000000) scale(0.100000,-0.100000)"
fill="#000000" stroke="none">
<path d="M2410 4192 c0 -11 -7 -22 -15 -26 -13 -5 -20 5 -16 27 0 4 -3 7 -9 7
-5 0 -10 -9 -10 -19 0 -30 -19 -35 -26 -6 -3 14 -11 25 -16 25 -6 0 -8 -6 -5
-14 10 -25 -7 -28 -26 -4 l-19 23 7 -29 c5 -23 3 -27 -10 -22 -9 3 -14 2 -11
-3 7 -11 -22 -23 -36 -15 -5 3 -13 17 -19 30 -7 21 -11 23 -23 12 -7 -7 -12
-18 -9 -24 2 -7 0 -15 -6 -19 -6 -3 -14 0 -17 9 -3 8 -12 17 -20 20 -11 4 -13
0 -9 -17 9 -34 -32 -34 -47 -1 -8 17 -17 23 -27 18 -9 -3 -27 -8 -41 -10 -37
-7 -148 -34 -208 -51 -51 -14 -53 -16 -37 -34 16 -17 14 -61 -2 -46 -3 4 -12
2 -20 -4 -7 -6 -13 -8 -13 -5 0 4 -10 1 -22 -6 -13 -7 -27 -11 -31 -10 -4 1
-18 -3 -30 -10 -12 -7 -25 -13 -29 -14 -5 -1 -10 -3 -13 -4 -3 -1 -8 -3 -12
-4 -30 -7 -53 -19 -53 -27 0 -6 -4 -8 -9 -4 -5 3 -13 1 -16 -5 -4 -6 -15 -8
-26 -5 -12 4 -18 2 -17 -5 4 -18 -68 -22 -82 -4 -16 18 -34 18 -27 1 3 -8 1
-20 -3 -27 -7 -11 -11 -10 -25 3 -26 27 -31 20 -5 -8 13 -14 21 -28 17 -31 -3
-3 -14 4 -24 15 -9 12 -24 21 -32 21 -10 0 -8 -7 9 -25 25 -26 19 -36 -6 -10
-18 17 -34 20 -34 4 0 -5 -6 -7 -12 -4 -7 4 1 -5 17 -19 17 -14 25 -26 18 -26
-6 0 -15 5 -18 10 -3 6 -11 10 -17 10 -6 0 -3 -10 8 -21 19 -22 19 -22 -3 -8
-13 7 -22 19 -20 26 1 6 -2 11 -8 10 -5 -1 -9 -6 -7 -11 2 -5 -4 -6 -13 -2 -9
3 -14 2 -11 -3 8 -12 -22 -23 -37 -14 -7 3 -3 -3 7 -15 21 -24 46 -31 26 -7
-9 10 -9 15 -1 15 6 0 11 -4 11 -10 0 -5 5 -10 11 -10 8 0 8 5 -1 15 -8 9 -9
15 -2 15 22 0 23 -22 3 -41 -12 -11 -21 -16 -21 -12 0 4 -5 1 -10 -7 -8 -11
-12 -12 -18 -3 -5 7 -13 9 -21 3 -8 -4 -21 -6 -30 -3 -9 3 -6 -3 7 -14 36 -30
14 -35 -27 -6 l-36 25 27 -25 c30 -28 34 -37 17 -37 -6 0 -37 -28 -69 -61 -52
-54 -62 -61 -87 -55 l-28 6 28 -15 c35 -20 35 -29 0 -21 -16 3 -22 3 -16 0 9
-4 0 -21 -26 -52 -22 -26 -55 -73 -74 -104 -19 -32 -36 -56 -38 -54 -11 9 -67
13 -79 6 -13 -8 -12 -11 4 -23 17 -12 15 -13 -13 -11 -17 1 -28 -2 -25 -7 3
-5 12 -9 20 -9 8 0 13 -4 9 -10 -3 -5 -12 -7 -20 -3 -8 3 -15 0 -15 -6 0 -6 6
-11 13 -11 27 -1 92 -12 97 -17 3 -3 -25 -3 -63 0 -37 3 -70 1 -73 -4 -4 -8
26 -14 49 -10 5 1 6 -3 3 -7 -3 -5 -17 -8 -31 -7 -14 2 -25 -1 -25 -6 0 -8 23
-12 73 -12 13 0 15 -3 6 -13 -7 -8 -31 -14 -57 -14 -25 0 -42 -3 -38 -7 8 -9
13 -9 74 -11 24 -1 41 -6 38 -11 -3 -5 -26 -7 -50 -5 -25 3 -47 1 -49 -3 -3
-5 15 -8 39 -7 24 0 44 -3 44 -7 0 -5 -11 -43 -25 -85 -14 -42 -26 -89 -27
-105 -2 -28 -4 -29 -58 -31 l-55 -2 53 -3 c65 -5 69 -23 4 -23 -58 0 -64 -4
-50 -36 11 -24 22 -28 68 -24 33 3 21 -9 -16 -16 -49 -9 -54 -25 -6 -23 23 2
46 -1 52 -7 6 -6 -10 -10 -42 -11 -28 -1 -56 -7 -62 -13 -8 -8 2 -10 39 -8 45
3 50 1 53 -19 2 -13 0 -23 -5 -24 -55 -5 -81 -19 -76 -39 4 -16 11 -19 37 -14
54 11 58 10 62 -16 3 -21 8 -40 19 -80 1 -3 5 -21 9 -40 5 -19 11 -39 14 -45
4 -5 7 -14 8 -20 1 -5 5 -17 8 -25 4 -11 1 -16 -11 -17 -10 -1 -31 -6 -47 -12
-21 -9 -26 -15 -21 -29 4 -9 8 -23 8 -29 0 -7 6 -13 13 -13 7 0 10 -8 7 -20
-7 -26 12 -26 68 0 48 21 51 20 78 -33 19 -37 19 -38 0 -48 -11 -5 -25 -9 -32
-8 -25 3 -37 -1 -35 -13 2 -7 -2 -12 -9 -11 -8 2 -9 -6 -2 -30 5 -17 6 -40 3
-51 -4 -11 -2 -16 4 -12 5 3 13 -1 16 -10 3 -8 2 -13 -3 -10 -18 12 -1 -125
24 -196 33 -93 65 -189 70 -208 13 -54 91 -160 117 -160 5 0 6 -5 3 -10 -4 -6
-2 -9 3 -8 5 2 34 -22 64 -52 140 -138 185 -178 218 -195 19 -9 62 -44 96 -76
34 -34 72 -62 88 -65 15 -2 51 -14 79 -24 29 -11 58 -20 66 -20 7 0 35 -16 62
-35 43 -31 101 -61 122 -63 4 0 20 -3 35 -6 112 -23 197 -30 362 -30 80 0 177
3 215 7 39 4 95 10 125 12 30 3 82 7 115 9 75 7 152 15 185 21 14 2 45 7 70
10 182 24 429 99 605 185 116 56 345 197 345 212 0 5 -32 -13 -72 -38 -102
-65 -177 -105 -299 -157 -101 -43 -310 -113 -367 -123 -15 -3 -35 -7 -44 -10
-10 -3 -30 -7 -45 -10 -16 -2 -39 -7 -53 -9 -62 -13 -78 -15 -132 -21 l-57 -6
10 33 c5 19 12 57 15 84 4 28 8 57 10 65 1 8 3 29 3 46 1 16 8 39 16 50 15 17
15 13 10 -56 -3 -41 -8 -87 -10 -102 -2 -19 1 -28 11 -28 8 0 14 11 15 28 0
15 2 36 4 47 2 11 5 39 6 62 3 46 6 48 74 58 41 6 69 11 108 20 12 3 31 7 42
9 11 2 28 8 39 12 17 6 18 3 11 -37 -4 -24 -9 -53 -11 -64 -13 -61 -15 -97 -6
-91 9 5 16 36 29 126 11 70 14 73 114 99 123 31 294 97 443 172 120 59 143 68
131 49 -3 -5 -2 -10 4 -10 5 0 12 13 16 30 4 16 11 30 16 30 5 0 23 9 39 20
17 11 43 29 59 39 16 11 31 18 34 15 3 -3 -10 -43 -28 -90 -18 -46 -31 -84
-28 -84 3 0 0 -7 -7 -15 -7 -9 -10 -19 -6 -22 11 -11 21 10 66 135 l42 114
-51 50 c-28 28 -51 52 -51 54 0 13 23 -2 66 -43 49 -48 56 -60 43 -78 -7 -10
-29 -74 -29 -87 -1 -4 -12 -33 -26 -64 -14 -31 -22 -59 -19 -62 8 -8 9 -6 62
134 l50 132 -50 51 c-28 27 -48 53 -44 57 4 4 17 -2 30 -14 13 -12 29 -22 36
-22 7 0 10 -4 7 -9 -3 -5 5 -16 19 -25 14 -9 25 -23 25 -30 0 -8 -16 -56 -35
-107 -41 -106 -45 -165 -7 -87 24 49 100 241 107 270 2 10 -14 33 -41 58 -58
53 -49 65 12 15 54 -45 58 -53 44 -90 -6 -15 -9 -30 -6 -32 2 -2 10 16 19 40
l15 44 -54 44 c-65 54 -56 76 12 28 75 -53 73 -49 58 -93 -8 -22 -13 -41 -11
-43 4 -3 47 108 47 121 0 4 -13 19 -30 33 -37 30 -37 40 -2 79 63 73 85 103
123 166 23 37 52 94 65 125 12 32 29 59 37 61 8 2 31 -4 50 -12 32 -13 36 -13
41 1 8 20 12 18 -64 41 -69 21 -49 30 26 11 25 -6 48 -9 51 -5 9 9 1 14 -27
20 -14 3 -36 8 -50 11 -14 4 -31 7 -37 7 -7 1 -13 5 -13 10 0 5 15 6 33 3 106
-20 102 -20 104 17 1 25 -3 34 -15 36 -9 1 -26 4 -37 6 -11 2 -24 5 -28 5 -5
1 -5 6 -2 11 4 6 10 8 15 5 16 -10 81 -14 75 -5 -4 6 -14 10 -23 11 -10 1 -7
4 8 8 24 7 24 8 -7 12 -18 3 -30 2 -28 -1 2 -4 -2 -7 -10 -7 -8 0 -12 4 -9 9
3 4 -4 8 -15 8 -12 0 -21 4 -21 9 0 5 25 7 55 4 30 -3 55 -1 55 4 0 5 -12 10
-27 11 -16 2 -44 7 -63 12 l-35 10 38 -5 c20 -2 35 0 33 4 -3 4 8 5 25 3 17
-3 29 0 29 7 0 6 -12 11 -27 11 -16 0 -35 5 -43 10 -11 8 -3 9 28 6 23 -3 42
-1 42 5 0 5 -3 9 -7 10 -5 0 -17 3 -28 5 -11 3 -30 5 -42 6 -13 0 -20 4 -17 9
3 5 25 8 50 7 24 0 47 2 50 5 6 6 -86 22 -118 20 -10 0 -18 4 -18 9 0 4 29 6
65 3 41 -4 65 -3 65 4 0 5 -8 10 -17 10 -10 0 -29 3 -43 5 -14 2 -36 5 -50 5
-20 1 -22 3 -10 11 8 5 36 8 62 5 34 -3 48 0 52 10 3 8 1 17 -3 19 -4 3 -11
29 -14 57 -13 107 -93 304 -169 418 -100 149 -138 187 -162 164 -3 -4 -17 -8
-29 -9 -15 -2 -11 2 12 12 42 19 29 38 -17 25 -34 -10 -55 3 -22 14 11 4 18
10 15 15 -3 5 -16 5 -31 0 -45 -18 -50 -10 -6 10 23 10 42 22 42 25 0 3 -9 1
-21 -5 -23 -13 -54 -6 -44 10 3 5 12 10 18 10 7 0 6 -4 -3 -11 -12 -9 -12 -10
3 -5 10 3 21 6 23 6 3 0 -1 6 -8 14 -7 7 -19 11 -27 8 -9 -3 -12 -1 -7 6 10
16 -6 15 -23 0 -11 -11 -12 -10 -5 2 21 37 0 59 -36 40 -26 -14 -25 -14 -25
22 0 29 -9 37 -97 98 -150 104 -325 199 -480 261 l-48 19 -35 -32 c-43 -37
-54 -33 -19 7 17 20 21 32 13 39 -7 8 -16 5 -29 -11 -10 -13 -22 -23 -26 -23
-4 0 -3 5 4 12 7 7 12 19 12 27 0 9 -8 1 -17 -17 -12 -25 -19 -30 -29 -21 -8
6 -11 22 -8 38 6 29 2 31 -53 31 -13 0 -23 5 -23 11 0 6 -5 9 -11 7 -6 -2 -9
-6 -8 -8 1 -3 -3 -15 -10 -27 -13 -25 -29 -26 -48 -3 -8 10 -12 11 -13 3 0 -7
-7 -10 -16 -6 -9 3 -13 12 -10 22 4 11 2 10 -9 -3 -11 -14 -15 -16 -15 -5 0
12 -2 12 -10 -1 -8 -13 -10 -12 -10 3 0 10 -4 16 -9 12 -6 -3 -19 5 -30 17
-12 12 -21 16 -21 10 0 -7 -9 -12 -20 -12 -17 0 -19 5 -15 28 l5 27 -10 -26
c-9 -21 -16 -25 -36 -21 -19 3 -24 9 -21 23 3 11 1 17 -4 13 -5 -3 -9 -12 -9
-19 0 -8 -6 -12 -12 -10 -32 10 -164 12 -176 2 -10 -8 -15 -8 -20 0 -4 6 -23
13 -42 15 -27 2 -35 7 -35 23 0 14 -7 20 -23 21 -14 1 -22 -5 -22 -15 0 -9 -5
-23 -11 -31 -9 -13 -10 -13 -6 1 3 9 1 22 -4 30 -8 12 -10 12 -8 -1 3 -28 -1
-37 -15 -37 -8 0 -12 5 -10 11 3 7 -2 20 -10 31 -15 20 -15 20 -16 -2 0 -13
-4 -23 -10 -23 -5 0 -10 6 -10 14 0 8 -4 18 -10 21 -5 3 -10 -3 -10 -13z
m1670 -536 c0 -2 -7 -7 -16 -10 -8 -3 -12 -2 -9 4 6 10 25 14 25 6z m-3323
-352 c-3 -3 -12 -4 -19 -1 -8 3 -5 6 6 6 11 1 17 -2 13 -5z m22 -30 c2 -2 -12
-4 -32 -4 -20 0 -37 4 -37 10 0 8 58 3 69 -6z m-39 -54 c12 -8 11 -10 -7 -10
-12 0 -25 5 -28 10 -8 13 15 13 35 0z m3730 -464 c0 -3 -4 -8 -10 -11 -5 -3
-10 -1 -10 4 0 6 5 11 10 11 6 0 10 -2 10 -4z m5 -46 c3 -5 1 -10 -4 -10 -6 0
-11 5 -11 10 0 6 2 10 4 10 3 0 8 -4 11 -10z m20 -175 c13 -15 48 -28 40 -15
-3 6 -13 10 -21 10 -8 0 -14 4 -14 9 0 4 11 6 24 4 15 -3 23 -11 22 -21 -2
-10 -6 -16 -10 -15 -3 1 -20 4 -36 8 -17 4 -28 11 -24 16 3 6 -6 8 -23 4 -15
-3 -22 -2 -14 1 11 5 11 8 0 16 -9 5 -3 6 16 2 17 -4 35 -13 40 -19z"/>
<path d="M633 3183 c9 -2 25 -2 35 0 9 3 1 5 -18 5 -19 0 -27 -2 -17 -5z"/>
<path d="M4186 1803 c-6 -14 -5 -15 5 -6 7 7 10 15 7 18 -3 3 -9 -2 -12 -12z"/>
<path d="M4161 1744 c-18 -49 -10 -51 11 -3 9 21 13 39 9 39 -4 0 -13 -16 -20
-36z"/>
</g>
</svg>
